<?xml version="1.0" encoding="utf-8"?>
<!-- Generator: Adobe Illustrator 27.6.1, SVG Export Plug-In . SVG Version: 6.00 Build 0)  -->
<svg version="1.2" baseProfile="tiny" id="Layer_1" xmlns="http://www.w3.org/2000/svg" xmlns:xlink="http://www.w3.org/1999/xlink"
	 x="0px" y="0px" viewBox="0 0 64 47" overflow="visible" xml:space="preserve">
<g>
	<g>
		<path fill="#00a2ef" d="M29.5,11.1c0.9-0.9,2.2-1.3,3.5-1.1V0.7h0c-7.7,0-14,6.2-14,14h9.3C28.2,13.3,28.5,12,29.5,11.1"/>
		<path fill="#00a2ef" d="M43.5,11.1c0.9-0.9,2.2-1.3,3.5-1.1V0.7h0c-7.7,0-14,6.2-14,14h9.3C42.2,13.3,42.5,12,43.5,11.1"/>
		<path fill="#00a2ef" d="M57.5,11.1c0.9-0.9,2.2-1.3,3.5-1.1V0.7h0c-7.7,0-14,6.2-14,14h9.3C56.2,13.3,56.5,12,57.5,11.1"/>
		<path fill="#00a2ef" d="M37,19.2c-0.9,0.9-2.2,1.3-3.5,1.1v9.2h0c8.1,0,14-5.4,14-14h-9.3C38.3,16.9,37.9,18.3,37,19.2"/>
		<path fill="#00a2ef" d="M22.6,19.2c-0.9,0.9-2.2,1.3-3.5,1.1v9.2h0c7.7,0,14-6.2,14-14h-9.3C23.9,16.9,23.5,18.3,22.6,19.2"/>
		<path fill="#00a2ef" d="M57.4,25.9c0.9-0.9,2.3-1.3,3.6-1.1v-9.2h0c-9.2,0-14,5.4-14,14h9.3C56.1,28.2,56.4,26.9,57.4,25.9"/>
	</g>
	<g>
		<path fill="#00a2ef" d="M1.9,40v0.2c0,1,0.6,1.3,1.2,1.3c0.8,0,1.3-0.3,1.3-1.2c0-1.6-3.3-1.5-3.3-3.7c0-1.3,0.9-2,2.2-2
			c1.4,0,2.1,0.7,2.1,2.2h-1c0-0.8-0.2-1.3-1.1-1.3c-0.6,0-1.1,0.3-1.1,1.1c0,1.6,3.3,1.4,3.3,3.8c0,1.6-1.1,2.1-2.3,2.1
			C1,42.4,1,40.7,1,40H1.9z"/>
		<path fill="#00a2ef" d="M7.3,40v0.2c0,1,0.6,1.3,1.2,1.3c0.8,0,1.3-0.3,1.3-1.2c0-1.6-3.3-1.5-3.3-3.7c0-1.3,0.9-2,2.2-2
			c1.4,0,2.1,0.7,2.1,2.2h-1c0-0.8-0.2-1.3-1.1-1.3c-0.6,0-1.1,0.3-1.1,1.1c0,1.6,3.3,1.4,3.3,3.8c0,1.6-1.1,2.1-2.3,2.1
			c-2.2,0-2.2-1.7-2.2-2.4H7.3z"/>
		<path fill="#00a2ef" d="M12.2,42.2v-7.4h3.7v0.8h-2.7V38h2.6v0.8h-2.6v3.4H12.2z"/>
		<path fill="#00a2ef" d="M19.9,42.2H19v-7.4h0.9V42.2z"/>
		<path fill="#00a2ef" d="M24.4,42.2v-3.6c0-0.6-0.2-1-0.9-1c-0.9,0-1.1,0.8-1.1,1.5v3.1h-0.8v-4.1c0-0.4,0-0.7-0.1-1.1h0.9v0.7h0
			c0.3-0.6,0.7-0.8,1.4-0.8c1.1,0,1.4,0.7,1.4,1.7v3.6H24.4z"/>
		<path fill="#00a2ef" d="M29.4,37h0.8v5.7c0,1.2-0.8,1.4-1.9,1.4c-0.9,0-1.6-0.4-1.6-1.4h0.9c0,0.5,0.3,0.8,0.8,0.8
			c0.6,0,0.9-0.4,0.9-0.9v-1.1h0c-0.2,0.4-0.7,0.6-1.1,0.6c-1.4,0-1.7-1.2-1.7-2.8c0-2.4,1.2-2.5,1.6-2.5c0.5,0,1,0.2,1.2,0.7h0V37z
			 M28.4,37.6c-1,0-1,1.2-1,1.8c0,1.7,0.4,2.1,1,2.1c1,0,1-1.2,1-1.9C29.4,38.8,29.5,37.6,28.4,37.6z"/>
		<path fill="#00a2ef" d="M32.5,39.9c0,1.5,0.4,1.7,1.1,1.7c0.6,0,0.9-0.5,0.9-1h0.9c0,1.2-0.7,1.7-1.8,1.7c-1.1,0-2-0.3-2-2.6
			c0-1.5,0.2-2.8,2-2.8c1.5,0,1.9,0.8,1.9,2.5v0.4H32.5z M34.6,39.3c0-1.5-0.4-1.7-1-1.7c-0.5,0-1,0.3-1,1.7H34.6z"/>
		<path fill="#00a2ef" d="M39.6,42.2v-3.6c0-0.6-0.2-1-0.9-1c-0.9,0-1.1,0.8-1.1,1.5v3.1h-0.8v-4.1c0-0.4,0-0.7-0.1-1.1h0.9v0.7h0
			c0.3-0.6,0.7-0.8,1.4-0.8c1.1,0,1.4,0.7,1.4,1.7v3.6H39.6z"/>
		<path fill="#00a2ef" d="M41.8,34.8h0.9v0.9h-0.9V34.8z M42.7,42.2h-0.8V37h0.8V42.2z"/>
		<path fill="#00a2ef" d="M44.8,39.9c0,1.5,0.4,1.7,1.1,1.7c0.6,0,0.9-0.5,0.9-1h0.9c0,1.2-0.7,1.7-1.8,1.7c-1.1,0-2-0.3-2-2.6
			c0-1.5,0.2-2.8,2-2.8c1.5,0,1.9,0.8,1.9,2.5v0.4H44.8z M46.9,39.3c0-1.5-0.4-1.7-1-1.7c-0.5,0-1,0.3-1,1.7H46.9z"/>
		<path fill="#00a2ef" d="M51.7,37h0.8v4.1c0,0.4,0,0.7,0.1,1.1h-0.9v-0.6h0c-0.3,0.5-0.8,0.7-1.3,0.7c-0.9,0-1.4-0.5-1.4-1.3v-4
			h0.8v3.6c0,0.6,0.3,1.1,0.9,1.1c0.5,0,1-0.3,1-1.2V37z"/>
		<path fill="#00a2ef" d="M54.8,37.8L54.8,37.8c0.4-0.8,0.8-0.9,1.6-0.9v0.9c-0.1,0-0.2,0-0.2,0c-0.1,0-0.1,0-0.2,0
			c-0.9,0-1.2,0.7-1.2,1.4v3.1h-0.8V37h0.8V37.8z"/>
		<path fill="#00a2ef" d="M58.1,39.9c0,1.5,0.4,1.7,1.1,1.7c0.6,0,0.9-0.5,0.9-1h0.9c0,1.2-0.7,1.7-1.8,1.7c-1.1,0-2-0.3-2-2.6
			c0-1.5,0.2-2.8,2-2.8c1.5,0,1.9,0.8,1.9,2.5v0.4H58.1z M60.1,39.3c0-1.5-0.4-1.7-1-1.7c-0.5,0-1,0.3-1,1.7H60.1z"/>
	</g>
</g>
</svg>
