<?xml version="1.0" encoding="UTF-8"?>
<svg xmlns="http://www.w3.org/2000/svg" width="512" height="512" viewBox="0 0 512 512" fill="none">
  <path d="M129.649 209.515C140.097 199.068 155.162 194.451 170.226 196.8V89C80.9734 89 8 160.84 8 251.226H115.8C114.666 235.028 118.149 219.963 129.73 209.515" fill="#00A2EF"></path>
  <path d="M291.87 209.515C302.318 199.068 317.382 194.451 332.447 196.8V89C243.194 89 170.221 160.84 170.221 251.226H278.02C276.887 235.028 280.369 219.963 291.951 209.515" fill="#00A2EF"></path>
  <path d="M454.184 209.515C464.632 199.068 479.697 194.451 494.761 196.8V89C405.509 89 332.535 160.84 332.535 251.226H440.335C439.201 235.028 442.684 219.963 454.265 209.515" fill="#00A2EF"></path>
  <path d="M216.555 303.385C206.107 313.832 191.043 318.449 175.979 316.1V422.685C269.848 422.685 338.205 360.079 338.205 260.459H230.405C231.539 276.657 226.922 292.937 216.474 303.304" fill="#00A2EF"></path>
  <path d="M49.7155 303.385C39.2675 313.832 24.2031 318.449 9.13867 316.1V422.685C98.3914 422.685 171.365 350.846 171.365 260.459H63.565C64.6989 276.657 60.0824 292.937 49.6345 303.304" fill="#00A2EF"></path>
  <path d="M463.423 379.926C473.871 369.478 488.935 364.861 504 367.21V260.625C414.747 260.625 341.773 332.465 341.773 422.851H449.573C448.439 406.653 453.056 390.373 463.504 380.007" fill="#00A2EF"></path>
</svg>
